<?xml version="1.0" standalone="no"?>
<!DOCTYPE svg PUBLIC "-//W3C//DTD SVG 20010904//EN"
 "http://www.w3.org/TR/2001/REC-SVG-20010904/DTD/svg10.dtd">
<svg version="1.0" xmlns="http://www.w3.org/2000/svg"
 width="465.000000pt" height="112.000000pt" viewBox="0 0 465.000000 112.000000"
 preserveAspectRatio="xMidYMid meet">

<g transform="translate(0.000000,112.000000) scale(0.100000,-0.100000)"
fill="#000000" stroke="none">
<path d="M208 932 c-10 -2 -35 -58 -72 -160 -31 -86 -56 -160 -56 -164 0 -5
38 -8 85 -8 47 0 85 -1 85 -3 0 -1 -31 -89 -70 -196 -38 -106 -70 -199 -70
-207 0 -12 29 -14 171 -12 l172 3 48 135 c27 74 60 168 75 208 l26 72 88 0
c74 0 89 3 95 18 9 24 106 295 108 305 2 7 -651 16 -685 9z"/>
<path d="M991 908 c-5 -13 -51 -142 -104 -288 -52 -146 -109 -302 -125 -347
l-31 -83 174 0 173 0 30 83 c16 45 44 125 62 177 18 52 37 99 41 104 4 4 17
-10 29 -33 11 -23 29 -56 39 -72 l18 -30 79 62 c44 34 85 67 93 73 18 14 19
15 -57 -196 l-59 -168 173 0 c96 0 174 2 174 4 0 2 59 167 130 367 72 199 130
364 130 366 0 2 -75 3 -167 3 l-168 0 -95 -75 c-52 -41 -98 -75 -102 -75 -4 0
-25 34 -48 75 l-41 75 -170 0 c-167 0 -170 0 -178 -22z"/>
<path d="M2026 652 c-54 -152 -114 -319 -132 -369 l-34 -93 173 0 173 0 129
362 c72 199 132 365 133 370 2 4 -74 8 -170 8 l-173 0 -99 -278z"/>
<path d="M2504 569 c-71 -199 -131 -366 -132 -370 -2 -5 137 -8 325 -7 l328 3
27 75 c15 41 27 81 27 88 1 9 -36 12 -150 12 -132 0 -150 2 -145 15 3 9 30 84
60 168 30 84 73 203 95 265 l40 112 -172 0 -173 0 -130 -361z"/>
<path d="M3211 386 c-9 -11 -71 -179 -71 -193 0 -10 91 -1 95 10 24 69 25 69
41 56 11 -9 14 -22 10 -41 -5 -28 -5 -28 45 -28 l51 0 -4 48 c-2 38 2 53 20
77 27 35 25 55 -8 72 -35 18 -164 17 -179 -1z m105 -37 c7 -12 -22 -46 -32
-37 -8 9 5 48 16 48 5 0 12 -5 16 -11z"/>
<path d="M3485 387 c-2 -6 -20 -54 -39 -104 l-34 -93 93 0 c75 0 94 3 99 16 9
24 9 24 -35 24 -33 0 -40 3 -37 18 2 10 14 18 33 20 47 6 63 42 19 42 -19 0
-25 5 -22 18 2 13 15 18 51 20 26 2 47 7 47 12 0 4 2 15 5 23 5 11 -11 14 -85
15 -64 1 -92 -2 -95 -11z"/>
<path d="M3711 386 c-11 -13 -71 -172 -71 -187 0 -5 20 -9 45 -9 40 0 47 3 56
26 10 29 16 27 33 -8 9 -17 20 -23 46 -23 34 0 35 0 67 90 18 50 35 98 39 108
5 14 -1 17 -41 17 -44 0 -47 -2 -62 -37 l-15 -38 -17 35 c-12 27 -23 35 -44
36 -15 1 -31 -4 -36 -10z"/>
<path d="M3951 358 c-16 -39 -17 -43 -2 -46 29 -7 31 -17 11 -70 l-20 -52 49
0 49 0 19 58 c17 49 23 57 47 60 26 3 32 12 50 69 7 21 4 21 -89 22 l-96 1
-18 -42z"/>
<path d="M4157 298 l-75 -103 46 -3 c33 -2 48 1 54 12 12 22 98 22 98 1 0 -11
12 -15 45 -15 l45 0 0 104 0 103 -69 2 -69 1 -75 -102z m120 -12 c-4 -9 -13
-16 -22 -16 -18 0 -19 5 -4 32 13 24 35 9 26 -16z"/>
<path d="M4475 388 c-3 -7 -20 -55 -39 -106 l-34 -92 93 0 c75 0 94 3 99 16 9
24 9 24 -34 24 -46 0 -48 5 -21 75 37 100 38 95 -14 95 -27 0 -47 -5 -50 -12z"/>
</g>
</svg>
