<?xml version="1.0" standalone="no"?>
<!DOCTYPE svg PUBLIC "-//W3C//DTD SVG 20010904//EN"
 "http://www.w3.org/TR/2001/REC-SVG-20010904/DTD/svg10.dtd">
<svg version="1.0" xmlns="http://www.w3.org/2000/svg"
 width="225.000000pt" height="225.000000pt" viewBox="0 0 225.000000 225.000000"
 preserveAspectRatio="xMidYMid meet">

<g transform="translate(0.000000,225.000000) scale(0.100000,-0.100000)"
fill="#970000" stroke="none">
<path d="M460 1810 l0 -220 227 -2 228 -3 89 -131 89 -132 -92 -134 c-50 -74
-91 -139 -91 -145 0 -5 11 -22 24 -36 28 -30 156 -216 156 -226 -1 -3 -33 -53
-73 -111 l-73 -105 -142 -3 -142 -3 0 -54 0 -54 43 24 c73 42 162 29 219 -31
35 -38 48 -74 48 -135 l0 -49 193 0 194 0 -1 58 c-1 48 4 66 27 100 53 81 160
106 245 57 l42 -24 0 54 0 55 -172 2 -172 3 -74 108 -75 109 92 135 91 135
-91 136 c-64 93 -89 139 -83 148 5 7 45 67 89 133 l80 121 229 0 229 0 -7 61
c-3 34 -6 133 -6 220 l0 159 -670 0 -670 0 0 -220z m410 115 l0 -85 -190 0
-190 0 0 85 0 85 190 0 190 0 0 -85z m518 3 l-3 -83 -247 -3 -248 -2 0 85 0
85 250 0 251 0 -3 -82z m392 -3 l0 -85 -185 0 -185 0 0 85 0 85 185 0 185 0 0
-85z m-912 -177 l-3 -73 -190 0 -190 0 -3 59 c-2 32 -1 65 2 72 4 11 44 14
196 14 l191 0 -3 -72z m520 0 l-3 -73 -100 -7 c-55 -4 -166 -5 -247 -1 l-148
6 0 73 0 74 250 0 251 0 -3 -72z m390 0 l-3 -73 -182 -3 -183 -2 0 75 0 75
185 0 186 0 -3 -72z m-535 -157 l28 -6 -65 -94 c-36 -51 -67 -95 -70 -98 -2
-3 -34 39 -70 94 l-66 98 27 6 c16 4 64 7 108 7 44 0 93 -3 108 -7z m-38 -433
c33 -50 62 -95 63 -100 3 -7 -100 -169 -128 -201 -8 -9 -144 187 -139 201 11
27 125 192 134 192 6 0 37 -41 70 -92z m-17 -513 c23 -36 42 -69 42 -75 0 -6
-38 -10 -95 -10 -64 0 -95 4 -95 11 0 14 88 139 98 139 4 0 26 -30 50 -65z"/>
<path d="M716 430 c-40 -36 -52 -76 -36 -125 25 -76 129 -102 188 -47 111 104
-38 272 -152 172z m116 -47 c22 -20 23 -51 1 -75 -33 -36 -93 -13 -93 37 0 49
55 72 92 38z"/>
<path d="M1480 447 c-41 -21 -73 -76 -66 -117 17 -109 152 -142 213 -51 29 43
29 79 0 122 -25 38 -60 59 -97 59 -14 0 -36 -6 -50 -13z m90 -67 c24 -24 25
-47 3 -72 -18 -20 -63 -24 -81 -6 -29 29 -1 98 40 98 10 0 27 -9 38 -20z"/>
</g>
</svg>
