<?xml version="1.0" standalone="no"?>
<!DOCTYPE svg PUBLIC "-//W3C//DTD SVG 20010904//EN"
 "http://www.w3.org/TR/2001/REC-SVG-20010904/DTD/svg10.dtd">
<svg version="1.0" xmlns="http://www.w3.org/2000/svg"
 width="225.000000pt" height="225.000000pt" viewBox="0 0 225.000000 225.000000"
 preserveAspectRatio="xMidYMid meet">

<g transform="translate(0.000000,225.000000) scale(0.100000,-0.100000)"
fill="#970000" stroke="none">
<path d="M970 1879 c-212 -87 -400 -166 -417 -174 l-33 -15 0 -149 c0 -137 2
-151 19 -160 10 -6 21 -8 23 -6 3 3 99 -77 214 -177 115 -101 263 -230 329
-287 66 -57 121 -107 123 -111 1 -3 -87 -4 -196 -2 l-199 4 -6 -23 c-4 -13
-10 -72 -13 -131 l-7 -108 181 0 c175 0 182 -1 182 -20 0 -19 -7 -20 -145 -20
-130 0 -146 -2 -151 -17 -3 -10 -15 -35 -26 -56 -47 -88 3 -185 99 -194 64 -6
112 25 133 85 l14 42 142 0 142 0 5 -29 c4 -17 19 -44 35 -62 23 -26 38 -32
78 -36 116 -10 183 110 115 206 -12 16 -21 36 -21 45 0 14 -20 16 -160 16
-153 0 -160 1 -160 20 0 19 7 20 105 20 77 0 105 3 105 13 0 6 -7 55 -15 107
-8 52 -15 98 -15 101 0 4 -19 10 -43 13 -39 6 -77 37 -417 340 l-375 333 1 66
c0 45 6 72 16 84 9 10 21 34 27 54 12 36 14 37 259 140 l247 103 107 4 106 4
59 -99 c32 -54 61 -106 65 -116 7 -16 19 -17 110 -15 l103 3 3 163 2 162 -109
0 -110 0 -3 -87 -3 -88 -47 81 c-27 44 -48 85 -48 91 0 10 -32 44 -41 42 -2 0
-177 -72 -389 -160z m720 46 l0 -55 -85 0 -85 0 0 48 c0 27 3 52 7 55 3 4 42
7 85 7 l78 0 0 -55z m-340 25 c0 -5 -7 -10 -15 -10 -8 0 -15 5 -15 10 0 6 7
10 15 10 8 0 15 -4 15 -10z m340 -150 l0 -50 -75 0 c-63 0 -76 3 -85 19 -11
22 -13 64 -3 74 3 4 42 7 85 7 l78 0 0 -50z m-1070 -149 c0 -6 -4 -13 -10 -16
-5 -3 -10 1 -10 9 0 9 5 16 10 16 6 0 10 -4 10 -9z m382 -1248 c38 -34 11
-103 -40 -103 -54 0 -81 62 -45 102 20 22 61 23 85 1z m550 0 c38 -34 11 -103
-40 -103 -32 0 -62 27 -62 54 0 56 62 86 102 49z"/>
</g>
</svg>
