<?xml version="1.0" standalone="no"?>
<!DOCTYPE svg PUBLIC "-//W3C//DTD SVG 20010904//EN"
 "http://www.w3.org/TR/2001/REC-SVG-20010904/DTD/svg10.dtd">
<svg version="1.0" xmlns="http://www.w3.org/2000/svg"
 width="225.000000pt" height="225.000000pt" viewBox="0 0 225.000000 225.000000"
 preserveAspectRatio="xMidYMid meet">

<g transform="translate(0.000000,225.000000) scale(0.100000,-0.100000)"
fill="#000000" stroke="none">
<path d="M670 1780 l0 -245 446 0 445 0 -1 240 c0 131 -2 240 -3 242 -2 1
-202 4 -445 5 l-442 3 0 -245z m570 130 l0 -90 -275 0 -275 0 0 90 0 90 275 0
275 0 0 -90z m300 0 l0 -90 -140 0 -140 0 0 83 c0 46 3 87 7 90 3 4 66 7 140
7 l133 0 0 -90z m-300 -195 l0 -75 -275 0 -275 0 0 75 0 75 275 0 275 0 0 -75z
m300 0 l0 -76 -137 3 -138 3 -3 73 -3 72 141 0 140 0 0 -75z"/>
<path d="M1390 1355 l0 -135 60 0 60 0 0 135 0 135 -60 0 -60 0 0 -135z"/>
<path d="M1400 1045 l0 -135 50 0 50 0 0 135 0 135 -50 0 -50 0 0 -135z"/>
<path d="M1410 735 l0 -135 40 0 40 0 0 135 0 135 -40 0 -40 0 0 -135z"/>
<path d="M650 519 c0 -28 3 -49 8 -47 78 41 107 49 141 43 81 -15 141 -86 141
-169 l0 -46 178 0 178 0 -4 34 c-13 110 102 206 208 175 22 -7 45 -18 51 -26
21 -24 29 -13 29 37 l0 50 -465 0 -465 0 0 -51z"/>
<path d="M694 426 c-26 -26 -34 -42 -34 -70 0 -52 23 -90 66 -111 50 -24 95
-13 134 32 29 32 32 41 27 82 -7 63 -49 101 -113 101 -39 0 -51 -5 -80 -34z
m114 -32 c52 -36 3 -118 -54 -92 -43 20 -43 76 -1 96 30 14 29 14 55 -4z"/>
<path d="M1379 432 c-24 -21 -32 -39 -36 -73 -5 -41 -2 -50 27 -82 75 -86 200
-38 200 79 0 28 -8 44 -34 70 -29 29 -41 34 -80 34 -36 0 -52 -6 -77 -28z
m109 -38 c24 -17 30 -62 10 -82 -37 -37 -113 12 -89 57 10 18 37 40 51 41 3 0
16 -7 28 -16z"/>
</g>
</svg>
